PathFileType	4	(X/Y/Z)	Run_200 02
DataRate	CameraRate	NumFrames	NumMarkers	Units	OrigDataRate	OrigDataStartFrame	OrigNumFrames
100	100	4	42	mm	100	99	128
Frame#	Time	LASI			RASI			LPSI			RPSI			RTH1			RTH2			RTH3			LTH1			LTH2			LTH3			RTB1			RTB2			RTB3			LTB1			LTB2			LTB3			RCAL			RTOE			RMT5			LCAL			LTOE			LMT5			LACR			RACR			CLAV			C7			RUA1			RUA2			RUA3			RLEL			RMEL			LUA1			LUA2			LUA3			LLEL			LMEL			RFAsuperior			RFAradius			RFAulna			LFAsuperior			LFAradius			LFAulna			
		X1	Y1	Z1	X2	Y2	Z2	X3	Y3	Z3	X4	Y4	Z4	X5	Y5	Z5	X6	Y6	Z6	X7	Y7	Z7	X8	Y8	Z8	X9	Y9	Z9	X10	Y10	Z10	X11	Y11	Z11	X12	Y12	Z12	X13	Y13	Z13	X14	Y14	Z14	X15	Y15	Z15	X16	Y16	Z16	X17	Y17	Z17	X18	Y18	Z18	X19	Y19	Z19	X20	Y20	Z20	X21	Y21	Z21	X22	Y22	Z22	X23	Y23	Z23	X24	Y24	Z24	X25	Y25	Z25	X26	Y26	Z26	X27	Y27	Z27	X28	Y28	Z28	X29	Y29	Z29	X30	Y30	Z30	X31	Y31	Z31	X32	Y32	Z32	X33	Y33	Z33	X34	Y34	Z34	X35	Y35	Z35	X36	Y36	Z36	X37	Y37	Z37	X38	Y38	Z38	X39	Y39	Z39	X40	Y40	Z40	X41	Y41	Z41	X42	Y42	Z42	

83	2.23	717.585465	1002.679249	-439.730576	717.418513	1009.659575	-173.186224	544.512528	1011.2612	-358.99668	542.292942	1018.709106	-254.281922	656.296753	813.519681	-131.300926	767.843401	734.936724	-148.432518	731.9078479999999	605.512671	-181.536882	650.763789	799.877977	-479.162538	711.359429	674.860624	-461.743935	662.42294	556.97684	-449.959368	811.697559	377.609965	-269.527744	784.844921	321.969426	-207.237361	768.972295	213.575158	-271.384362	581.523981	358.500374	-387.87587	483.234727	363.713451	-448.449971	438.176003	297.369108	-382.936087	636.680097	98.317746	-280.897917	861.910479	70.766248	-289.283788	809.705426	62.101787	-199.765598	281.39065	346.400172	-365.863269	327.806176	123.037248	-357.529365	277.489871	163.568248	-439.149451	719.5254629999999	1471.797749	-472.756684	707.045794	1480.896926	-137.109514	764.491836	1411.353658	-272.760442	648.399594	1499.868856	-306.679456	639.26458	1413.624899	-59.940789	557.6639300000001	1363.003685	-91.90237999999999	570.245193	1303.550877	-40.990414	505.339217	1214.993042	-23.608733	499.482023	1207.427945	-103.605167	683.380135	1382.277195	-552.8615160000001	627.101408	1301.272161	-539.625934	651.600783	1239.843343	-590.285163	663.433175	1155.549825	-613.513679	619.411365	1145.697621	-546.510665	591.010721	1147.985096	-12.479761	721.933146	1061.471857	-47.595372	666.632639	1014.543961	-45.297781	764.257112	1138.005777	-569.516333	873.583531	1124.619779	-449.507962	876.823786	1060.634741	-481.645974	
84	2.24	715.591326	995.362983	-440.314879	715.171035	1007.333504	-171.386265	542.657297	1006.843919	-360.837922	539.6410530000001	1016.767097	-253.398422	655.532872	811.898063	-130.804107	766.901967	733.091092	-149.220169	728.659616	602.150753	-181.238882	654.289088	794.273361	-478.361536	719.473461	671.498861	-461.697816	674.42301	552.504306	-448.753637	802.578755	373.493221	-269.200581	772.7790199999999	319.20121	-206.646292	753.826174	211.132643	-271.140249	596.819056	357.096488	-386.263373	499.228512	363.344084	-447.857468	452.746526	299.194149	-381.623585	616.97023	98.680381	-280.714042	842.239343	69.598591	-288.626072	789.577555	60.999993	-199.315923	294.129134	349.928816	-364.865554	342.606735	126.483727	-359.089165	295.038563	168.495772	-442.051476	716.432856	1466.506565	-473.445291	706.849414	1475.379177	-136.043822	764.030253	1406.63949	-272.55507	648.1701	1495.986196	-305.797569	642.709208	1404.838991	-58.598403	561.120984	1351.952284	-86.244263	577.60271	1292.899295	-36.584052	515.10268	1202.915058	-17.559267	506.767881	1194.484776	-96.843664	677.820105	1376.547827	-551.8942070000001	621.161931	1295.304974	-536.872788	644.2508790000001	1234.43354	-588.072996	653.969512	1149.984955	-612.0536959999999	610.943656	1140.384834	-544.419526	602.162024	1137.738786	-8.432523	733.310331	1053.579084	-46.137951	678.967133	1005.630408	-41.263837	755.090807	1127.491856	-571.028925	866.942328	1106.791976	-454.048328	866.513049	1043.53391	-487.708215	
85	2.25	713.139357	989.980844	-441.505268	713.147348	1005.344947	-170.528409	540.6961240000001	1004.352246	-361.852437	537.219743	1015.252383	-253.448591	653.554538	810.88528	-130.024409	763.1057499999999	730.107127	-148.979338	721.970982	598.01576	-181.924367	656.240726	790.158584	-477.301198	727.749358	669.395368	-461.491598	686.323274	550.07325	-447.584743	792.509758	368.387586	-267.934415	759.234905	315.62109	-205.554876	738.052094	208.262023	-270.545153	613.095789	356.963896	-384.188947	516.340386	363.078759	-447.116604	468.830002	300.542666	-380.264062	597.244196	99.023235	-280.488731	822.493647	68.76062400000001	-287.837841	769.449707	60.041416	-198.948678	308.16069	351.86178	-364.129222	359.428997	128.33138	-360.293024	314.739064	171.751113	-444.41972	713.6433489999999	1462.322684	-473.691298	706.962535	1470.540427	-135.303502	763.466814	1402.663948	-272.654415	647.649445	1492.656092	-305.230668	645.252644	1397.640948	-57.613598	564.591231	1341.732436	-81.39054899999999	585.179073	1283.567764	-32.774989	525.765232	1191.663194	-11.709417	514.9320729999999	1182.363981	-90.28276200000001	672.337008	1372.348126	-550.698395	615.302815	1291.015566	-533.321491	636.360059	1230.457647	-585.2792899999999	644.287012	1145.81965	-609.952591	602.384336	1136.399867	-541.620192	614.327253	1128.67576	-4.918159	745.387393	1046.682279	-44.896233	692.0228980000001	997.779126	-36.901191	745.257969	1117.983441	-571.9644050000001	859.396779	1088.439411	-458.986626	854.824285	1026.186973	-494.444374	
86	2.26	710.656969	986.956737	-442.689958	711.324881	1003.424071	-170.74612	538.343849	1003.041871	-362.021333	534.964186	1013.832648	-254.552426	650.628414	810.321087	-129.212983	756.756388	726.489818	-148.044815	713.386958	594.690919	-182.838359	656.704023	787.154453	-476.019239	735.8309379999999	668.500256	-461.162023	698.265532	549.123211	-446.499204	781.358845	363.186018	-266.404895	745.241093	311.890899	-204.592481	721.552016	205.691138	-270.055397	630.144121	358.003556	-381.892079	534.127243	363.07193	-446.271987	486.01023	301.292974	-378.987066	577.435442	99.385251	-280.189936	802.587012	68.33965600000001	-287.15496	749.278059	59.619926	-198.508774	323.257817	352.047226	-363.792011	378.526256	129.022472	-361.358088	335.890541	173.198944	-446.137818	711.20725	1459.380652	-473.510624	707.41102	1466.595718	-134.633913	762.851684	1399.528439	-272.907143	646.911961	1490.121594	-304.561418	646.904325	1392.098804	-56.778734	567.972181	1332.754836	-77.82147399999999	592.499492	1275.955959	-29.595314	537.001207	1181.810323	-6.205932	523.660071	1171.624379	-84.051525	667.041501	1369.670881	-549.331189	609.690748	1288.41649	-529.2031009999999	628.067104	1227.958455	-582.000347	634.4048330000001	1143.175698	-607.004369	594.388336	1133.983689	-538.063049	627.107649	1121.246268	-1.884393	758.043315	1041.232651	-43.936638	705.6789230000001	991.528765	-32.727301	734.9545869999999	1110.071605	-572.061315	850.774813	1070.126086	-464.280571	841.655625	1009.372713	-501.70116	
